<?xml version="1.0" encoding="UTF-8" standalone="no"?>
<!DOCTYPE svg PUBLIC "-//W3C//DTD SVG 1.1//EN"
 "http://www.w3.org/Graphics/SVG/1.1/DTD/svg11.dtd">
<!-- Generated by graphviz version 12.2.1 (20241206.2353)
 -->
<!-- Title: G Pages: 1 -->
<svg width="878pt" height="537pt"
 viewBox="0.00 0.00 878.12 537.00" xmlns="http://www.w3.org/2000/svg" xmlns:xlink="http://www.w3.org/1999/xlink">
<g id="graph0" class="graph" transform="scale(1 1) rotate(0) translate(4 533)">
<title>G</title>
<polygon fill="white" stroke="none" points="-4,4 -4,-533 874.12,-533 874.12,4 -4,4"/>
<!-- CALC_COMP_PARAMS -->
<g id="node1" class="node">
<title>CALC_COMP_PARAMS</title>
<text text-anchor="start" x="133.25" y="-376.35" font-family="Bitstream-Vera Sans" font-size="7.00">CALC_COMP_PARAMS</text>
<polygon fill="none" stroke="black" points="128.62,-370 128.62,-372 206.88,-372 206.88,-370 128.62,-370"/>
<text text-anchor="start" x="130.62" y="-361.35" font-family="Bitstream-Vera Sans" font-size="7.00">&#45; id(PK) : INTEGER</text>
<text text-anchor="start" x="130.62" y="-348.35" font-family="Bitstream-Vera Sans" font-size="7.00">&#45; name : VARCHAR</text>
<text text-anchor="start" x="130.62" y="-335.35" font-family="Bitstream-Vera Sans" font-size="7.00">&#45; value : FLOAT</text>
<text text-anchor="start" x="130.62" y="-322.35" font-family="Bitstream-Vera Sans" font-size="7.00">&#45; uom_id(FK) : INTEGER</text>
<polygon fill="none" stroke="black" points="127.62,-317 127.62,-386 207.88,-386 207.88,-317 127.62,-317"/>
</g>
<!-- UOM -->
<g id="node2" class="node">
<title>UOM</title>
<text text-anchor="start" x="122.25" y="-243.85" font-family="Bitstream-Vera Sans" font-size="7.00">UOM</text>
<polygon fill="none" stroke="black" points="91.38,-237.5 91.38,-239.5 168.12,-239.5 168.12,-237.5 91.38,-237.5"/>
<text text-anchor="start" x="93.38" y="-228.85" font-family="Bitstream-Vera Sans" font-size="7.00">&#45; id(PK) : INTEGER</text>
<text text-anchor="start" x="93.38" y="-215.85" font-family="Bitstream-Vera Sans" font-size="7.00">&#45; uom_code : VARCHAR</text>
<polygon fill="none" stroke="black" points="90.38,-210.5 90.38,-253.5 169.12,-253.5 169.12,-210.5 90.38,-210.5"/>
</g>
<!-- CALC_COMP_PARAMS&#45;&gt;UOM -->
<g id="edge1" class="edge">
<title>CALC_COMP_PARAMS&#45;&gt;UOM</title>
<path fill="none" stroke="black" d="M152.6,-303.65C148.47,-290.89 144.09,-277.35 140.28,-265.57"/>
<polygon fill="black" stroke="black" points="152.55,-303.49 151.34,-314.39 154.19,-308.56 155.52,-312.69 155.52,-312.69 155.52,-312.69 154.19,-308.56 159.91,-311.62 152.55,-303.49"/>
<ellipse fill="none" stroke="black" cx="139.01" cy="-261.63" rx="4" ry="4"/>
<text text-anchor="middle" x="131.25" y="-259.7" font-family="Bitstream-Vera Sans" font-size="7.00">+ id</text>
<text text-anchor="middle" x="140.73" y="-306.67" font-family="Bitstream-Vera Sans" font-size="7.00">+ uom_id</text>
</g>
<!-- COMPANIES -->
<g id="node3" class="node">
<title>COMPANIES</title>
<text text-anchor="start" x="150.38" y="-37.35" font-family="Bitstream-Vera Sans" font-size="7.00">COMPANIES</text>
<polygon fill="none" stroke="black" points="137.5,-31 137.5,-33 200,-33 200,-31 137.5,-31"/>
<text text-anchor="start" x="139.5" y="-22.35" font-family="Bitstream-Vera Sans" font-size="7.00">&#45; id(PK) : INTEGER</text>
<text text-anchor="start" x="139.5" y="-9.35" font-family="Bitstream-Vera Sans" font-size="7.00">&#45; name : VARCHAR</text>
<polygon fill="none" stroke="black" points="136.5,-4 136.5,-47 201,-47 201,-4 136.5,-4"/>
</g>
<!-- DKS -->
<g id="node4" class="node">
<title>DKS</title>
<text text-anchor="start" x="257.75" y="-250.35" font-family="Bitstream-Vera Sans" font-size="7.00">DKS</text>
<polygon fill="none" stroke="black" points="225,-244 225,-246 302.5,-246 302.5,-244 225,-244"/>
<text text-anchor="start" x="227" y="-235.35" font-family="Bitstream-Vera Sans" font-size="7.00">&#45; id(PK) : INTEGER</text>
<text text-anchor="start" x="227" y="-222.35" font-family="Bitstream-Vera Sans" font-size="7.00">&#45; name : VARCHAR</text>
<text text-anchor="start" x="227" y="-209.35" font-family="Bitstream-Vera Sans" font-size="7.00">&#45; field_id(FK) : INTEGER</text>
<polygon fill="none" stroke="black" points="224,-204 224,-260 303.5,-260 303.5,-204 224,-204"/>
</g>
<!-- FIELD -->
<g id="node5" class="node">
<title>FIELD</title>
<text text-anchor="start" x="159.75" y="-137.35" font-family="Bitstream-Vera Sans" font-size="7.00">FIELD</text>
<polygon fill="none" stroke="black" points="120.25,-131 120.25,-133 217.25,-133 217.25,-131 120.25,-131"/>
<text text-anchor="start" x="122.25" y="-122.35" font-family="Bitstream-Vera Sans" font-size="7.00">&#45; id(PK) : INTEGER</text>
<text text-anchor="start" x="122.25" y="-109.35" font-family="Bitstream-Vera Sans" font-size="7.00">&#45; name : VARCHAR</text>
<text text-anchor="start" x="122.25" y="-96.35" font-family="Bitstream-Vera Sans" font-size="7.00">&#45; companies_id(FK) : INTEGER</text>
<polygon fill="none" stroke="black" points="119.25,-91 119.25,-147 218.25,-147 218.25,-91 119.25,-91"/>
</g>
<!-- DKS&#45;&gt;FIELD -->
<g id="edge2" class="edge">
<title>DKS&#45;&gt;FIELD</title>
<path fill="none" stroke="black" d="M230.61,-192.28C220.97,-181.02 210.47,-168.74 200.89,-157.56"/>
<polygon fill="black" stroke="black" points="230.57,-192.23 233.65,-202.75 234.04,-196.28 236.85,-199.57 236.85,-199.57 236.85,-199.57 234.04,-196.28 240.49,-196.9 230.57,-192.23"/>
<ellipse fill="none" stroke="black" cx="198" cy="-154.17" rx="4" ry="4"/>
<text text-anchor="middle" x="188.7" y="-153.1" font-family="Bitstream-Vera Sans" font-size="7.00">+ id</text>
<text text-anchor="middle" x="222.66" y="-193.43" font-family="Bitstream-Vera Sans" font-size="7.00">+ field_id</text>
</g>
<!-- FIELD&#45;&gt;COMPANIES -->
<g id="edge3" class="edge">
<title>FIELD&#45;&gt;COMPANIES</title>
<path fill="none" stroke="black" d="M168.75,-76.78C168.75,-71.09 168.75,-65.3 168.75,-59.78"/>
<polygon fill="black" stroke="black" points="168.75,-76.69 164.25,-86.69 168.75,-82.02 168.75,-86.35 168.75,-86.35 168.75,-86.35 168.75,-82.02 173.25,-86.69 168.75,-76.69"/>
<ellipse fill="none" stroke="black" cx="168.75" cy="-55.3" rx="4" ry="4"/>
<text text-anchor="middle" x="175.12" y="-53.15" font-family="Bitstream-Vera Sans" font-size="7.00">+ id</text>
<text text-anchor="middle" x="144.38" y="-80.37" font-family="Bitstream-Vera Sans" font-size="7.00">+ companies_id</text>
</g>
<!-- EQ_COMPRESSOR_TYPE -->
<g id="node6" class="node">
<title>EQ_COMPRESSOR_TYPE</title>
<text text-anchor="start" x="446.88" y="-263.35" font-family="Bitstream-Vera Sans" font-size="7.00">EQ_COMPRESSOR_TYPE</text>
<polygon fill="none" stroke="black" points="432.5,-257 432.5,-259 537,-259 537,-257 432.5,-257"/>
<text text-anchor="start" x="434.5" y="-248.35" font-family="Bitstream-Vera Sans" font-size="7.00">&#45; id(PK) : INTEGER</text>
<text text-anchor="start" x="434.5" y="-235.35" font-family="Bitstream-Vera Sans" font-size="7.00">&#45; press_out_id(FK) : INTEGER</text>
<text text-anchor="start" x="434.5" y="-222.35" font-family="Bitstream-Vera Sans" font-size="7.00">&#45; comp_ratio_id(FK) : INTEGER</text>
<text text-anchor="start" x="434.5" y="-209.35" font-family="Bitstream-Vera Sans" font-size="7.00">&#45; freq_nominal_id(FK) : INTEGER</text>
<text text-anchor="start" x="434.5" y="-196.35" font-family="Bitstream-Vera Sans" font-size="7.00">&#45; power_id(FK) : INTEGER</text>
<polygon fill="none" stroke="black" points="431.5,-191 431.5,-273 538,-273 538,-191 431.5,-191"/>
</g>
<!-- EQ_COMPRESSOR_TYPE_COMP_RATIO -->
<g id="node7" class="node">
<title>EQ_COMPRESSOR_TYPE_COMP_RATIO</title>
<text text-anchor="start" x="424" y="-130.85" font-family="Bitstream-Vera Sans" font-size="7.00">EQ_COMPRESSOR_TYPE_COMP_RATIO</text>
<polygon fill="none" stroke="black" points="422,-124.5 422,-126.5 547.5,-126.5 547.5,-124.5 422,-124.5"/>
<text text-anchor="start" x="424" y="-115.85" font-family="Bitstream-Vera Sans" font-size="7.00">&#45; id(PK) : INTEGER</text>
<text text-anchor="start" x="424" y="-102.85" font-family="Bitstream-Vera Sans" font-size="7.00">&#45; value : FLOAT</text>
<polygon fill="none" stroke="black" points="421,-97.5 421,-140.5 548.5,-140.5 548.5,-97.5 421,-97.5"/>
</g>
<!-- EQ_COMPRESSOR_TYPE&#45;&gt;EQ_COMPRESSOR_TYPE_COMP_RATIO -->
<g id="edge6" class="edge">
<title>EQ_COMPRESSOR_TYPE&#45;&gt;EQ_COMPRESSOR_TYPE_COMP_RATIO</title>
<path fill="none" stroke="black" d="M484.75,-176.77C484.75,-168.79 484.75,-160.77 484.75,-153.37"/>
<polygon fill="black" stroke="black" points="484.75,-176.8 480.25,-186.8 484.75,-182.13 484.75,-186.46 484.75,-186.46 484.75,-186.46 484.75,-182.13 489.25,-186.8 484.75,-176.8"/>
<ellipse fill="none" stroke="black" cx="484.75" cy="-148.89" rx="4" ry="4"/>
<text text-anchor="middle" x="478.38" y="-146.74" font-family="Bitstream-Vera Sans" font-size="7.00">+ id</text>
<text text-anchor="middle" x="459.62" y="-180.48" font-family="Bitstream-Vera Sans" font-size="7.00">+ comp_ratio_id</text>
</g>
<!-- EQ_COMPRESSOR_TYPE_FREQ_NOMINAL -->
<g id="node8" class="node">
<title>EQ_COMPRESSOR_TYPE_FREQ_NOMINAL</title>
<text text-anchor="start" x="585.5" y="-130.85" font-family="Bitstream-Vera Sans" font-size="7.00">EQ_COMPRESSOR_TYPE_FREQ_NOMINAL</text>
<polygon fill="none" stroke="black" points="583.5,-124.5 583.5,-126.5 718,-126.5 718,-124.5 583.5,-124.5"/>
<text text-anchor="start" x="585.5" y="-115.85" font-family="Bitstream-Vera Sans" font-size="7.00">&#45; id(PK) : INTEGER</text>
<text text-anchor="start" x="585.5" y="-102.85" font-family="Bitstream-Vera Sans" font-size="7.00">&#45; value : FLOAT</text>
<polygon fill="none" stroke="black" points="582.5,-97.5 582.5,-140.5 719,-140.5 719,-97.5 582.5,-97.5"/>
</g>
<!-- EQ_COMPRESSOR_TYPE&#45;&gt;EQ_COMPRESSOR_TYPE_FREQ_NOMINAL -->
<g id="edge7" class="edge">
<title>EQ_COMPRESSOR_TYPE&#45;&gt;EQ_COMPRESSOR_TYPE_FREQ_NOMINAL</title>
<path fill="none" stroke="black" d="M554.12,-184.62C572.12,-172.58 591,-159.96 607.24,-149.09"/>
<polygon fill="black" stroke="black" points="554.21,-184.55 543.4,-186.37 549.78,-187.52 546.18,-189.93 546.18,-189.93 546.18,-189.93 549.78,-187.52 548.4,-193.85 554.21,-184.55"/>
<ellipse fill="none" stroke="black" cx="610.77" cy="-146.73" rx="4" ry="4"/>
<text text-anchor="middle" x="608.13" y="-146.58" font-family="Bitstream-Vera Sans" font-size="7.00">+ id</text>
<text text-anchor="middle" x="573.74" y="-183.65" font-family="Bitstream-Vera Sans" font-size="7.00">+ freq_nominal_id</text>
</g>
<!-- EQ_COMPRESSOR_TYPE_POWER -->
<g id="node9" class="node">
<title>EQ_COMPRESSOR_TYPE_POWER</title>
<text text-anchor="start" x="756.38" y="-130.85" font-family="Bitstream-Vera Sans" font-size="7.00">EQ_COMPRESSOR_TYPE_POWER</text>
<polygon fill="none" stroke="black" points="754.38,-124.5 754.38,-126.5 861.12,-126.5 861.12,-124.5 754.38,-124.5"/>
<text text-anchor="start" x="756.38" y="-115.85" font-family="Bitstream-Vera Sans" font-size="7.00">&#45; id(PK) : INTEGER</text>
<text text-anchor="start" x="756.38" y="-102.85" font-family="Bitstream-Vera Sans" font-size="7.00">&#45; value : FLOAT</text>
<polygon fill="none" stroke="black" points="753.38,-97.5 753.38,-140.5 862.12,-140.5 862.12,-97.5 753.38,-97.5"/>
</g>
<!-- EQ_COMPRESSOR_TYPE&#45;&gt;EQ_COMPRESSOR_TYPE_POWER -->
<g id="edge5" class="edge">
<title>EQ_COMPRESSOR_TYPE&#45;&gt;EQ_COMPRESSOR_TYPE_POWER</title>
<path fill="none" stroke="black" d="M555.79,-210.39C606.4,-195.21 675.8,-173.4 735.75,-151 738.58,-149.94 741.45,-148.84 744.35,-147.7"/>
<polygon fill="black" stroke="black" points="555.83,-210.38 544.96,-208.92 550.72,-211.9 546.57,-213.14 546.57,-213.14 546.57,-213.14 550.72,-211.9 547.54,-217.55 555.83,-210.38"/>
<ellipse fill="none" stroke="black" cx="748.37" cy="-146.09" rx="4" ry="4"/>
<text text-anchor="middle" x="746.17" y="-146.77" font-family="Bitstream-Vera Sans" font-size="7.00">+ id</text>
<text text-anchor="middle" x="563.55" y="-215.68" font-family="Bitstream-Vera Sans" font-size="7.00">+ power_id</text>
</g>
<!-- EQ_COMPRESSOR_TYPE_PRESSURE_OUT -->
<g id="node10" class="node">
<title>EQ_COMPRESSOR_TYPE_PRESSURE_OUT</title>
<text text-anchor="start" x="255.25" y="-130.85" font-family="Bitstream-Vera Sans" font-size="7.00">EQ_COMPRESSOR_TYPE_PRESSURE_OUT</text>
<polygon fill="none" stroke="black" points="253.25,-124.5 253.25,-126.5 386.25,-126.5 386.25,-124.5 253.25,-124.5"/>
<text text-anchor="start" x="255.25" y="-115.85" font-family="Bitstream-Vera Sans" font-size="7.00">&#45; id(PK) : INTEGER</text>
<text text-anchor="start" x="255.25" y="-102.85" font-family="Bitstream-Vera Sans" font-size="7.00">&#45; value : FLOAT</text>
<polygon fill="none" stroke="black" points="252.25,-97.5 252.25,-140.5 387.25,-140.5 387.25,-97.5 252.25,-97.5"/>
</g>
<!-- EQ_COMPRESSOR_TYPE&#45;&gt;EQ_COMPRESSOR_TYPE_PRESSURE_OUT -->
<g id="edge4" class="edge">
<title>EQ_COMPRESSOR_TYPE&#45;&gt;EQ_COMPRESSOR_TYPE_PRESSURE_OUT</title>
<path fill="none" stroke="black" d="M415.15,-184.18C397.52,-172.31 379.08,-159.91 363.16,-149.21"/>
<polygon fill="black" stroke="black" points="415.2,-184.21 420.99,-193.53 419.63,-187.19 423.22,-189.61 423.22,-189.61 423.22,-189.61 419.63,-187.19 426.01,-186.06 415.2,-184.21"/>
<ellipse fill="none" stroke="black" cx="359.78" cy="-146.93" rx="4" ry="4"/>
<text text-anchor="middle" x="349.67" y="-146.77" font-family="Bitstream-Vera Sans" font-size="7.00">+ id</text>
<text text-anchor="middle" x="400.9" y="-183.33" font-family="Bitstream-Vera Sans" font-size="7.00">+ press_out_id</text>
</g>
<!-- EQ_COMPRESSSOR_PERFORMANCE_CURVE -->
<g id="node11" class="node">
<title>EQ_COMPRESSSOR_PERFORMANCE_CURVE</title>
<text text-anchor="start" x="215.75" y="-515.35" font-family="Bitstream-Vera Sans" font-size="7.00">EQ_COMPRESSSOR_PERFORMANCE_CURVE</text>
<polygon fill="none" stroke="black" points="213.75,-509 213.75,-511 355.75,-511 355.75,-509 213.75,-509"/>
<text text-anchor="start" x="215.75" y="-500.35" font-family="Bitstream-Vera Sans" font-size="7.00">&#45; id(PK) : INTEGER</text>
<text text-anchor="start" x="215.75" y="-487.35" font-family="Bitstream-Vera Sans" font-size="7.00">&#45; head : FLOAT</text>
<text text-anchor="start" x="215.75" y="-474.35" font-family="Bitstream-Vera Sans" font-size="7.00">&#45; non_dim_rate : FLOAT</text>
<text text-anchor="start" x="215.75" y="-461.35" font-family="Bitstream-Vera Sans" font-size="7.00">&#45; kpd : FLOAT</text>
<text text-anchor="start" x="215.75" y="-448.35" font-family="Bitstream-Vera Sans" font-size="7.00">&#45; unit_id(FK) : INTEGER</text>
<text text-anchor="start" x="215.75" y="-435.35" font-family="Bitstream-Vera Sans" font-size="7.00">&#45; param_id(FK) : INTEGER</text>
<polygon fill="none" stroke="black" points="212.75,-430 212.75,-525 356.75,-525 356.75,-430 212.75,-430"/>
</g>
<!-- EQ_COMPRESSSOR_PERFORMANCE_CURVE&#45;&gt;CALC_COMP_PARAMS -->
<g id="edge9" class="edge">
<title>EQ_COMPRESSSOR_PERFORMANCE_CURVE&#45;&gt;CALC_COMP_PARAMS</title>
<path fill="none" stroke="black" d="M230.17,-418.65C223.12,-411.19 216,-403.64 209.22,-396.45"/>
<polygon fill="black" stroke="black" points="230.07,-418.55 233.66,-428.91 233.73,-422.43 236.7,-425.58 236.7,-425.58 236.7,-425.58 233.73,-422.43 240.21,-422.73 230.07,-418.55"/>
<ellipse fill="none" stroke="black" cx="206.18" cy="-393.23" rx="4" ry="4"/>
<text text-anchor="middle" x="196.72" y="-392.31" font-family="Bitstream-Vera Sans" font-size="7.00">+ id</text>
<text text-anchor="middle" x="219.16" y="-419.41" font-family="Bitstream-Vera Sans" font-size="7.00">+ param_id</text>
</g>
<!-- EQ_COMPRESSSOR_UNIT -->
<g id="node12" class="node">
<title>EQ_COMPRESSSOR_UNIT</title>
<text text-anchor="start" x="246" y="-376.35" font-family="Bitstream-Vera Sans" font-size="7.00">EQ_COMPRESSSOR_UNIT</text>
<polygon fill="none" stroke="black" points="242.5,-370 242.5,-372 329,-372 329,-370 242.5,-370"/>
<text text-anchor="start" x="244.5" y="-361.35" font-family="Bitstream-Vera Sans" font-size="7.00">&#45; id(PK) : INTEGER</text>
<text text-anchor="start" x="244.5" y="-348.35" font-family="Bitstream-Vera Sans" font-size="7.00">&#45; unique_name : VARCHAR</text>
<text text-anchor="start" x="244.5" y="-335.35" font-family="Bitstream-Vera Sans" font-size="7.00">&#45; type_id(FK) : INTEGER</text>
<text text-anchor="start" x="244.5" y="-322.35" font-family="Bitstream-Vera Sans" font-size="7.00">&#45; dks_id(FK) : INTEGER</text>
<polygon fill="none" stroke="black" points="241.5,-317 241.5,-386 330,-386 330,-317 241.5,-317"/>
</g>
<!-- EQ_COMPRESSSOR_PERFORMANCE_CURVE&#45;&gt;EQ_COMPRESSSOR_UNIT -->
<g id="edge8" class="edge">
<title>EQ_COMPRESSSOR_PERFORMANCE_CURVE&#45;&gt;EQ_COMPRESSSOR_UNIT</title>
<path fill="none" stroke="black" d="M285.24,-415.78C285.29,-410 285.33,-404.2 285.38,-398.59"/>
<polygon fill="black" stroke="black" points="285.24,-415.73 280.66,-425.69 285.2,-421.06 285.16,-425.4 285.16,-425.4 285.16,-425.4 285.2,-421.06 289.66,-425.77 285.24,-415.73"/>
<ellipse fill="none" stroke="black" cx="285.41" cy="-394.46" rx="4" ry="4"/>
<text text-anchor="middle" x="279.07" y="-392.31" font-family="Bitstream-Vera Sans" font-size="7.00">+ id</text>
<text text-anchor="middle" x="271.28" y="-419.41" font-family="Bitstream-Vera Sans" font-size="7.00">+ unit_id</text>
</g>
<!-- EQ_COMPRESSSOR_UNIT&#45;&gt;DKS -->
<g id="edge10" class="edge">
<title>EQ_COMPRESSSOR_UNIT&#45;&gt;DKS</title>
<path fill="none" stroke="black" d="M276.91,-303.31C275,-293.08 272.99,-282.36 271.14,-272.46"/>
<polygon fill="black" stroke="black" points="276.89,-303.16 274.3,-313.82 277.87,-308.41 278.67,-312.66 278.67,-312.66 278.67,-312.66 277.87,-308.41 283.15,-312.17 276.89,-303.16"/>
<ellipse fill="none" stroke="black" cx="270.32" cy="-268.06" rx="4" ry="4"/>
<text text-anchor="middle" x="263.11" y="-265.99" font-family="Bitstream-Vera Sans" font-size="7.00">+ id</text>
<text text-anchor="middle" x="265.29" y="-306.67" font-family="Bitstream-Vera Sans" font-size="7.00">+ dks_id</text>
</g>
<!-- EQ_COMPRESSSOR_UNIT&#45;&gt;EQ_COMPRESSOR_TYPE -->
<g id="edge11" class="edge">
<title>EQ_COMPRESSSOR_UNIT&#45;&gt;EQ_COMPRESSOR_TYPE</title>
<path fill="none" stroke="black" d="M346.62,-314.56C368.64,-301.56 393.65,-286.79 416.28,-273.43"/>
<polygon fill="black" stroke="black" points="346.67,-314.53 335.78,-315.74 342.08,-317.24 338.35,-319.44 338.35,-319.44 338.35,-319.44 342.08,-317.24 340.35,-323.49 346.67,-314.53"/>
<ellipse fill="none" stroke="black" cx="419.98" cy="-271.25" rx="4" ry="4"/>
<text text-anchor="middle" x="417.48" y="-271.31" font-family="Bitstream-Vera Sans" font-size="7.00">+ id</text>
<text text-anchor="middle" x="352.77" y="-322.13" font-family="Bitstream-Vera Sans" font-size="7.00">+ type_id</text>
</g>
<!-- EQ_COMPRESSSOR_PERFORMANCE_CURVE_PARAM -->
<g id="node13" class="node">
<title>EQ_COMPRESSSOR_PERFORMANCE_CURVE_PARAM</title>
<text text-anchor="start" x="11" y="-508.85" font-family="Bitstream-Vera Sans" font-size="7.00">EQ_COMPRESSSOR_PERFORMANCE_CURVE_PARAM</text>
<polygon fill="none" stroke="black" points="9,-502.5 9,-504.5 176.5,-504.5 176.5,-502.5 9,-502.5"/>
<text text-anchor="start" x="11" y="-493.85" font-family="Bitstream-Vera Sans" font-size="7.00">&#45; id(PK) : INTEGER</text>
<text text-anchor="start" x="11" y="-480.85" font-family="Bitstream-Vera Sans" font-size="7.00">&#45; name : VARCHAR</text>
<text text-anchor="start" x="11" y="-467.85" font-family="Bitstream-Vera Sans" font-size="7.00">&#45; value : FLOAT</text>
<text text-anchor="start" x="11" y="-454.85" font-family="Bitstream-Vera Sans" font-size="7.00">&#45; uom_id(FK) : INTEGER</text>
<text text-anchor="start" x="11" y="-441.85" font-family="Bitstream-Vera Sans" font-size="7.00">&#45; unit_id(FK) : INTEGER</text>
<polygon fill="none" stroke="black" points="8,-436.5 8,-518.5 177.5,-518.5 177.5,-436.5 8,-436.5"/>
</g>
<!-- EQ_COMPRESSSOR_PERFORMANCE_CURVE_PARAM&#45;&gt;UOM -->
<g id="edge13" class="edge">
<title>EQ_COMPRESSSOR_PERFORMANCE_CURVE_PARAM&#45;&gt;UOM</title>
<path fill="none" stroke="black" d="M97,-422.53C99.94,-390.55 104.46,-349.31 110.75,-313 113.45,-297.39 117.38,-280.28 120.97,-265.91"/>
<polygon fill="black" stroke="black" points="97.03,-422.28 91.65,-431.84 96.55,-427.59 96.16,-431.91 96.16,-431.91 96.16,-431.91 96.55,-427.59 100.62,-432.64 97.03,-422.28"/>
<ellipse fill="none" stroke="black" cx="122.03" cy="-261.71" rx="4" ry="4"/>
<text text-anchor="middle" x="116.77" y="-259.7" font-family="Bitstream-Vera Sans" font-size="7.00">+ id</text>
<text text-anchor="middle" x="81.1" y="-425.92" font-family="Bitstream-Vera Sans" font-size="7.00">+ uom_id</text>
</g>
<!-- EQ_COMPRESSSOR_PERFORMANCE_CURVE_PARAM&#45;&gt;EQ_COMPRESSSOR_UNIT -->
<g id="edge12" class="edge">
<title>EQ_COMPRESSSOR_PERFORMANCE_CURVE_PARAM&#45;&gt;EQ_COMPRESSSOR_UNIT</title>
<path fill="none" stroke="black" d="M169.83,-426.98C188.57,-414.93 208.33,-402.24 226.13,-390.81"/>
<polygon fill="black" stroke="black" points="169.76,-427.02 158.92,-428.64 165.27,-429.91 161.63,-432.25 161.63,-432.25 161.63,-432.25 165.27,-429.91 163.78,-436.21 169.76,-427.02"/>
<ellipse fill="none" stroke="black" cx="229.84" cy="-388.42" rx="4" ry="4"/>
<text text-anchor="middle" x="227.25" y="-388.34" font-family="Bitstream-Vera Sans" font-size="7.00">+ id</text>
<text text-anchor="middle" x="147.19" y="-425.96" font-family="Bitstream-Vera Sans" font-size="7.00">+ unit_id</text>
</g>
<!-- alembic_version -->
<g id="node14" class="node">
<title>alembic_version</title>
<text text-anchor="start" x="423.38" y="-482.85" font-family="Bitstream-Vera Sans" font-size="7.00">alembic_version</text>
<polygon fill="none" stroke="black" points="392.12,-476.5 392.12,-478.5 503.38,-478.5 503.38,-476.5 392.12,-476.5"/>
<text text-anchor="start" x="394.12" y="-467.85" font-family="Bitstream-Vera Sans" font-size="7.00">&#45; version_num(PK) : VARCHAR(32)</text>
<polygon fill="none" stroke="black" points="391.12,-462.5 391.12,-492.5 504.38,-492.5 504.38,-462.5 391.12,-462.5"/>
</g>
</g>
</svg>
